<?xml version="1.0" encoding="utf-8"?>
<!-- Generator: Adobe Illustrator 24.3.0, SVG Export Plug-In . SVG Version: 6.00 Build 0)  -->
<svg version="1.1" id="Layer_1" xmlns="http://www.w3.org/2000/svg" xmlns:xlink="http://www.w3.org/1999/xlink" x="0px" y="0px"
	 viewBox="0 0 107.9 101.5" style="enable-background:new 0 0 107.9 101.5;" xml:space="preserve">
<style type="text/css">
	.st0{fill:url(#SVGID_1_);}
	.st1{fill:#FFFFFF;}
</style>
<linearGradient id="SVGID_1_" gradientUnits="userSpaceOnUse" x1="42.9653" y1="29.8351" x2="80.3925" y2="113.5707">
	<stop  offset="0.1693" style="stop-color:#51D7B2"/>
	<stop  offset="0.3343" style="stop-color:#4FBFBB"/>
	<stop  offset="0.6811" style="stop-color:#4981D4"/>
	<stop  offset="0.9399" style="stop-color:#444FE7"/>
</linearGradient>
<circle class="st0" cx="52.4" cy="50.9" r="48.1"/>
<path class="st1" d="M76.7,29.6c2.7,0,3.9,1.6,3.9,3.5v16.5c0,1.9-1.4,3.4-3.3,3.5l-35.7,4c-2.9,0.4-3.3,4.2,0.2,4.2h36.1
	c3.9,0,3.9,5.8,0,5.8H41.1c-7.8,0-10.7-8.6-4.6-13.1l3.1-2.3l-11-24H23c-4.2,0-4.2-6.4,0-6.4h6.5c3.2,0,4.1,1.5,5,3.8l2.2,4.4
	L76.7,29.6L76.7,29.6z M43.3,76.9c0,3-2.4,5.5-5.6,5.5c-3,0-5.5-2.5-5.5-5.5c0-3.1,2.5-5.6,5.5-5.6C41,71.3,43.3,73.8,43.3,76.9z
	 M41.8,40.6h8.9l-1.9-6H39L41.8,40.6z M53.8,50.9l-2.3-7.2h-8.4l3.6,7.9L53.8,50.9z M52,34.6l1.9,6h8.8l-1.4-6
	C61.2,34.6,52,34.6,52,34.6z M64.9,49.8l-1.8-6h-8.4l2.2,6.8L64.9,49.8z M75.8,34.6H64.4l1.3,6h10.1V34.6z M80.8,76.9
	c0,3-2.4,5.5-5.5,5.5c-3.1,0-5.6-2.5-5.6-5.5c0-3.1,2.5-5.6,5.6-5.6C78.4,71.3,80.8,73.8,80.8,76.9z M75.8,43.8h-9.4l1.4,5.6l8-0.8
	V43.8z"/>
</svg>
